<svg width="20" height="20" viewBox="0 0 20 20" fill="none" xmlns="http://www.w3.org/2000/svg">
<g clip-path="url(#clip0_55_9035)">
<path d="M3.33333 5.83334C3.33333 5.39131 3.50892 4.96739 3.82148 4.65483C4.13404 4.34227 4.55797 4.16667 4.99999 4.16667H15C15.442 4.16667 15.8659 4.34227 16.1785 4.65483C16.4911 4.96739 16.6667 5.39131 16.6667 5.83334V15.8333C16.6667 16.2754 16.4911 16.6993 16.1785 17.0118C15.8659 17.3244 15.442 17.5 15 17.5H4.99999C4.55797 17.5 4.13404 17.3244 3.82148 17.0118C3.50892 16.6993 3.33333 16.2754 3.33333 15.8333V5.83334Z" stroke="#0A4FFF" stroke-width="1.3" stroke-linecap="round" stroke-linejoin="round"/>
<path d="M13.3333 2.5V5.83333" stroke="#0A4FFF" stroke-width="1.3" stroke-linecap="round" stroke-linejoin="round"/>
<path d="M6.66667 2.5V5.83333" stroke="#0A4FFF" stroke-width="1.3" stroke-linecap="round" stroke-linejoin="round"/>
<path d="M3.33333 9.16667H16.6667" stroke="#0A4FFF" stroke-width="1.3" stroke-linecap="round" stroke-linejoin="round"/>
<path d="M5.83333 11.6667H5.84416" stroke="#0A4FFF" stroke-width="1.3" stroke-linecap="round" stroke-linejoin="round"/>
<path d="M8.34167 11.6667H8.34667" stroke="#0A4FFF" stroke-width="1.3" stroke-linecap="round" stroke-linejoin="round"/>
<path d="M10.8417 11.6667H10.8467" stroke="#0A4FFF" stroke-width="1.3" stroke-linecap="round" stroke-linejoin="round"/>
<path d="M13.3458 11.6667H13.3508" stroke="#0A4FFF" stroke-width="1.3" stroke-linecap="round" stroke-linejoin="round"/>
<path d="M10.8458 14.1667H10.8508" stroke="#0A4FFF" stroke-width="1.3" stroke-linecap="round" stroke-linejoin="round"/>
<path d="M5.84166 14.1667H5.84666" stroke="#0A4FFF" stroke-width="1.3" stroke-linecap="round" stroke-linejoin="round"/>
<path d="M8.34167 14.1667H8.34667" stroke="#0A4FFF" stroke-width="1.3" stroke-linecap="round" stroke-linejoin="round"/>
</g>
<defs>
<clipPath id="clip0_55_9035">
<rect width="20" height="20" fill="white"/>
</clipPath>
</defs>
</svg>
