<svg width="15" height="15" viewBox="0 0 15 15" fill="none" xmlns="http://www.w3.org/2000/svg">
<path d="M2.49756 14.4648C1.73096 14.4648 1.15479 14.2744 0.769043 13.8936C0.388184 13.5176 0.197754 12.9512 0.197754 12.1943V3.25146C0.197754 2.49463 0.388184 1.92822 0.769043 1.55225C1.15479 1.17139 1.73096 0.980957 2.49756 0.980957H12.5024C13.269 0.980957 13.8428 1.17139 14.2236 1.55225C14.6045 1.92822 14.7949 2.49463 14.7949 3.25146V12.1943C14.7949 12.9512 14.6045 13.5176 14.2236 13.8936C13.8428 14.2744 13.269 14.4648 12.5024 14.4648H2.49756ZM2.3877 13.2856H12.5977C12.9248 13.2856 13.1763 13.1978 13.3521 13.022C13.5278 12.8511 13.6157 12.5972 13.6157 12.2603V5.35352C13.6157 5.0166 13.5278 4.7627 13.3521 4.5918C13.1763 4.41602 12.9248 4.32812 12.5977 4.32812H2.3877C2.06543 4.32812 1.81641 4.41602 1.64062 4.5918C1.46484 4.7627 1.37695 5.0166 1.37695 5.35352V12.2603C1.37695 12.5972 1.46484 12.8511 1.64062 13.022C1.81641 13.1978 2.06543 13.2856 2.3877 13.2856ZM6.07178 6.96484C5.94482 6.96484 5.85449 6.94043 5.80078 6.8916C5.75195 6.84277 5.72754 6.75488 5.72754 6.62793V6.1958C5.72754 6.06885 5.75195 5.9834 5.80078 5.93945C5.85449 5.89062 5.94482 5.86621 6.07178 5.86621H6.50391C6.63086 5.86621 6.71875 5.89062 6.76758 5.93945C6.82129 5.9834 6.84814 6.06885 6.84814 6.1958V6.62793C6.84814 6.75488 6.82129 6.84277 6.76758 6.8916C6.71875 6.94043 6.63086 6.96484 6.50391 6.96484H6.07178ZM8.50342 6.96484C8.37646 6.96484 8.28857 6.94043 8.23975 6.8916C8.19092 6.84277 8.1665 6.75488 8.1665 6.62793V6.1958C8.1665 6.06885 8.19092 5.9834 8.23975 5.93945C8.28857 5.89062 8.37646 5.86621 8.50342 5.86621H8.93555C9.06738 5.86621 9.15771 5.89062 9.20654 5.93945C9.25537 5.9834 9.27979 6.06885 9.27979 6.1958V6.62793C9.27979 6.75488 9.25537 6.84277 9.20654 6.8916C9.15771 6.94043 9.06738 6.96484 8.93555 6.96484H8.50342ZM10.9424 6.96484C10.8105 6.96484 10.7202 6.94043 10.6714 6.8916C10.6226 6.84277 10.5981 6.75488 10.5981 6.62793V6.1958C10.5981 6.06885 10.6226 5.9834 10.6714 5.93945C10.7202 5.89062 10.8105 5.86621 10.9424 5.86621H11.3672C11.499 5.86621 11.5894 5.89062 11.6382 5.93945C11.687 5.9834 11.7114 6.06885 11.7114 6.1958V6.62793C11.7114 6.75488 11.687 6.84277 11.6382 6.8916C11.5894 6.94043 11.499 6.96484 11.3672 6.96484H10.9424ZM3.64014 9.35986C3.5083 9.35986 3.41797 9.33545 3.36914 9.28662C3.32031 9.23779 3.2959 9.1499 3.2959 9.02295V8.59814C3.2959 8.46631 3.32031 8.37842 3.36914 8.33447C3.41797 8.28564 3.5083 8.26123 3.64014 8.26123H4.07227C4.19922 8.26123 4.28711 8.28564 4.33594 8.33447C4.38477 8.37842 4.40918 8.46631 4.40918 8.59814V9.02295C4.40918 9.1499 4.38477 9.23779 4.33594 9.28662C4.28711 9.33545 4.19922 9.35986 4.07227 9.35986H3.64014ZM6.07178 9.35986C5.94482 9.35986 5.85449 9.33545 5.80078 9.28662C5.75195 9.23779 5.72754 9.1499 5.72754 9.02295V8.59814C5.72754 8.46631 5.75195 8.37842 5.80078 8.33447C5.85449 8.28564 5.94482 8.26123 6.07178 8.26123H6.50391C6.63086 8.26123 6.71875 8.28564 6.76758 8.33447C6.82129 8.37842 6.84814 8.46631 6.84814 8.59814V9.02295C6.84814 9.1499 6.82129 9.23779 6.76758 9.28662C6.71875 9.33545 6.63086 9.35986 6.50391 9.35986H6.07178ZM8.50342 9.35986C8.37646 9.35986 8.28857 9.33545 8.23975 9.28662C8.19092 9.23779 8.1665 9.1499 8.1665 9.02295V8.59814C8.1665 8.46631 8.19092 8.37842 8.23975 8.33447C8.28857 8.28564 8.37646 8.26123 8.50342 8.26123H8.93555C9.06738 8.26123 9.15771 8.28564 9.20654 8.33447C9.25537 8.37842 9.27979 8.46631 9.27979 8.59814V9.02295C9.27979 9.1499 9.25537 9.23779 9.20654 9.28662C9.15771 9.33545 9.06738 9.35986 8.93555 9.35986H8.50342ZM10.9424 9.35986C10.8105 9.35986 10.7202 9.33545 10.6714 9.28662C10.6226 9.23779 10.5981 9.1499 10.5981 9.02295V8.59814C10.5981 8.46631 10.6226 8.37842 10.6714 8.33447C10.7202 8.28564 10.8105 8.26123 10.9424 8.26123H11.3672C11.499 8.26123 11.5894 8.28564 11.6382 8.33447C11.687 8.37842 11.7114 8.46631 11.7114 8.59814V9.02295C11.7114 9.1499 11.687 9.23779 11.6382 9.28662C11.5894 9.33545 11.499 9.35986 11.3672 9.35986H10.9424ZM3.64014 11.7549C3.5083 11.7549 3.41797 11.7329 3.36914 11.689C3.32031 11.6401 3.2959 11.5498 3.2959 11.418V10.9932C3.2959 10.8613 3.32031 10.7734 3.36914 10.7295C3.41797 10.6807 3.5083 10.6562 3.64014 10.6562H4.07227C4.19922 10.6562 4.28711 10.6807 4.33594 10.7295C4.38477 10.7734 4.40918 10.8613 4.40918 10.9932V11.418C4.40918 11.5498 4.38477 11.6401 4.33594 11.689C4.28711 11.7329 4.19922 11.7549 4.07227 11.7549H3.64014ZM6.07178 11.7549C5.94482 11.7549 5.85449 11.7329 5.80078 11.689C5.75195 11.6401 5.72754 11.5498 5.72754 11.418V10.9932C5.72754 10.8613 5.75195 10.7734 5.80078 10.7295C5.85449 10.6807 5.94482 10.6562 6.07178 10.6562H6.50391C6.63086 10.6562 6.71875 10.6807 6.76758 10.7295C6.82129 10.7734 6.84814 10.8613 6.84814 10.9932V11.418C6.84814 11.5498 6.82129 11.6401 6.76758 11.689C6.71875 11.7329 6.63086 11.7549 6.50391 11.7549H6.07178ZM8.50342 11.7549C8.37646 11.7549 8.28857 11.7329 8.23975 11.689C8.19092 11.6401 8.1665 11.5498 8.1665 11.418V10.9932C8.1665 10.8613 8.19092 10.7734 8.23975 10.7295C8.28857 10.6807 8.37646 10.6562 8.50342 10.6562H8.93555C9.06738 10.6562 9.15771 10.6807 9.20654 10.7295C9.25537 10.7734 9.27979 10.8613 9.27979 10.9932V11.418C9.27979 11.5498 9.25537 11.6401 9.20654 11.689C9.15771 11.7329 9.06738 11.7549 8.93555 11.7549H8.50342Z" fill="#0A4FFF"/>
</svg>
