<svg width="22" height="18" viewBox="0 0 22 18" fill="none" xmlns="http://www.w3.org/2000/svg">
<path d="M6.80469 17.8906C6.08073 17.8906 5.53906 17.7135 5.17969 17.3594C4.82552 17.0104 4.64323 16.4766 4.63281 15.7578L4.53906 8.08594L2.61719 8.52344C2.2526 8.60156 1.95312 8.56771 1.71875 8.42188C1.48958 8.27604 1.33073 8.01562 1.24219 7.64062L0.546875 4.86719C0.453125 4.4974 0.473958 4.1849 0.609375 3.92969C0.75 3.66927 0.997396 3.46354 1.35156 3.3125L6.85156 0.96875C7.00781 0.901042 7.15885 0.869792 7.30469 0.875C7.45052 0.875 7.59635 0.908854 7.74219 0.976562C8.08594 1.13802 8.41406 1.27344 8.72656 1.38281C9.04427 1.49219 9.36719 1.57552 9.69531 1.63281C10.0286 1.6901 10.3906 1.71875 10.7812 1.71875C11.1667 1.71875 11.5234 1.6901 11.8516 1.63281C12.1849 1.57552 12.5078 1.49219 12.8203 1.38281C13.138 1.27344 13.4688 1.13802 13.8125 0.976562C13.9583 0.908854 14.1042 0.875 14.25 0.875C14.3958 0.869792 14.5469 0.901042 14.7031 0.96875L20.2031 3.3125C20.5625 3.46354 20.8099 3.66927 20.9453 3.92969C21.0807 4.1849 21.1016 4.4974 21.0078 4.86719L20.3125 7.64062C20.224 8.01562 20.0625 8.27604 19.8281 8.42188C19.599 8.56771 19.3021 8.60156 18.9375 8.52344L17.0234 8.08594L16.9219 15.7578C16.9115 16.4766 16.7266 17.0104 16.3672 17.3594C16.013 17.7135 15.474 17.8906 14.75 17.8906H6.80469ZM10.7812 4.15625C11.2292 4.15625 11.6302 4.08333 11.9844 3.9375C12.3385 3.78646 12.638 3.57552 12.8828 3.30469C13.1276 3.03385 13.3151 2.71094 13.4453 2.33594C13.0391 2.49219 12.6068 2.61198 12.1484 2.69531C11.6953 2.77865 11.2396 2.82031 10.7812 2.82031C10.3177 2.82031 9.85677 2.77865 9.39844 2.69531C8.94531 2.61198 8.51562 2.49219 8.10938 2.33594C8.24479 2.71615 8.4349 3.04167 8.67969 3.3125C8.92969 3.58333 9.22917 3.79167 9.57812 3.9375C9.93229 4.08333 10.3333 4.15625 10.7812 4.15625Z" fill="white"/>
</svg>
